# xmcd
#
# Track frame offsets:
#	150
#	11518
#	27345
#	37840
#	49550
#	62878
#	78535
#	90545
#	98220
#	108995
#	118870
#	130350
#	147003
#
# Disc length: 2113 seconds
#
# Revision: 0
# Processed by: cddbd v1.4PL0 Copyright (c) Steve Scherf et al.
# Submitted via: dBpowerAMP V4.0
#
DISCID=a5083f0d
DTITLE=Red Meat - 13
DYEAR=1900
DGENRE=Country
TTITLE0=Cry A little Bit
TTITLE1=I'm No Stranger
TTITLE2=I'm One Woman Man
TTITLE3=Teetotalin' Time
TTITLE4=I Just Can't Gett You Off My Mind
TTITLE5=Deep Water
TTITLE6=The Show Must Go On
TTITLE7=Maria
TTITLE8=Baby Beats Me The Best
TTITLE9=The Heartache's On Me
TTITLE10=Poverty Line
TTITLE11=Broken Up And Blue
TTITLE12=Cattle Drive
EXTD=Ranchero Records  RAN-13/OWR-0237-2\n4200 Park Blvrd. Suite 227, Oakland, CA 94602
EXTT0=
EXTT1=
EXTT2=
EXTT3=
EXTT4=
EXTT5=
EXTT6=
EXTT7=
EXTT8=
EXTT9=
EXTT10=
EXTT11=
EXTT12=
PLAYORDER=
